<?xml version="1.0" encoding="utf-8"?>
<!-- Generator: Adobe Illustrator 24.1.0, SVG Export Plug-In . SVG Version: 6.00 Build 0)  -->
<svg version="1.1" id="Layer_1" xmlns="http://www.w3.org/2000/svg" xmlns:xlink="http://www.w3.org/1999/xlink" x="0px" y="0px"
	 viewBox="0 0 566.93 566.93" style="enable-background:new 0 0 566.93 566.93;" xml:space="preserve">
<style type="text/css">
	.st0{fill:#FF3333;}
	.st1{fill:#FA696B;}
</style>
<g>
	<ellipse class="st0" cx="283.76" cy="281.35" rx="165.64" ry="164.43"/>
	<polygon class="st1" points="233.12,145.34 210.92,75.75 219.32,70.95 249.32,141.74 	"/>
	<path class="st1" d="M208.52,146.54c0,0-58.2-48.6-60-52.2l-10.8,5.4c0,0,45.6,56.4,47.4,63.6L208.52,146.54z"/>
	<polygon class="st1" points="168.33,166.94 130.83,136.64 126.03,142.04 162.03,175.04 	"/>
	<path class="st1" d="M171.78,187.34c0,0-74.31-36-78.81-40.2l-7.13,6.9c0,0,72.43,44.4,73.18,45.9L171.78,187.34z"/>
	<path class="st1" d="M313.22,163.34c0,0,33-57,33.9-59.1l9,2.1c0,0-20.7,61.8-20.7,63L313.22,163.34z"/>
	<path class="st1" d="M285.32,120.74c0,0,16.2-71.1,16.2-76.8l9.3,1.2l-2.7,81.89L285.32,120.74z"/>
	<path class="st1" d="M260.42,119.69c0,0-31.05-72.9-31.5-82.79l-7.65,0.45c0,0,21.15,84.59,21.15,86.84L260.42,119.69z"/>
	<path class="st1" d="M363.46,154.34c0,0,20.7-66.15,26.55-77.85l-6.3-4.5c0,0-35.55,71.1-37.8,73.8L363.46,154.34z"/>
	<path class="st1" d="M387.76,179.54c0,0,62.55-45.9,65.25-49.5l3.15,4.5c0,0-53.1,47.25-54.9,53.1L387.76,179.54z"/>
	<path class="st1" d="M392.26,160.64c0,0,45.9-58.5,54.45-64.8l-5.4-4.95c0,0-59.4,61.65-63,64.35L392.26,160.64z"/>
	<path class="st1" d="M379.21,148.49c0,0,43.65-67.05,49.95-71.55l-7.65-5.4c0,0-52.2,71.55-53.55,72.9S379.21,148.49,379.21,148.49
		z"/>
	<path class="st1" d="M401.26,206.54c0,0,64.35-28.35,67.05-33.75l5.4,8.1c0,0-53.55,35.55-55.8,40.95L401.26,206.54z"/>
	<path class="st1" d="M423.31,223.64c0,0,88.18-17.1,91.13-20.7l2.46,7.2c0,0-86.21,23.85-89.16,29.25L423.31,223.64z"/>
	<path class="st1" d="M442.66,249.73c0,0,58.05,3.6,62.55,2.7l-0.45,7.65l-62.55,2.7L442.66,249.73z"/>
	<path class="st1" d="M416.06,285.73c0,0,85.69,14.4,93.65,14.4l-3.06,6.75c0,0-89.36-4.5-91.2-3.6
		C413.61,304.18,416.06,285.73,416.06,285.73z"/>
	<path class="st1" d="M439.06,324.88c0,0,62.55,31.05,66.15,31.05l-4.05,7.65c0,0-69.3-25.2-70.65-25.2L439.06,324.88z"/>
	<path class="st1" d="M441.31,318.58c0,0,82.34,9,87.29,11.25l0.45-9.45l-86.84-22.05L441.31,318.58z"/>
	<path class="st1" d="M425.56,350.98c0,0,77.4,55.8,80.09,56.7l-5.4,6.75c0,0-81.44-51.3-84.59-51.75L425.56,350.98z"/>
	<path class="st1" d="M404.41,382.03c0,0,45.9,64.8,48.15,67.05l-5.4,5.85c0,0-58.05-57.15-65.7-57.15L404.41,382.03z"/>
	<path class="st1" d="M353.84,375.73c0,0,29.65,105.09,32.12,109.8l-16.31,5.39c0,0-34.59-103.07-39.04-105.76L353.84,375.73z"/>
	<path class="st1" d="M303.17,421.04c0,2.05-7.65,91.43-2.7,105.3l-6.75,1.03c0,0-4.05-107.35-5.4-108.89L303.17,421.04z"/>
	<path class="st1" d="M240.17,394.63c0,0-19.8,119.29-22.95,124.55l9,2.34c0,0,27.45-118.71,29.25-119.87L240.17,394.63z"/>
	<path class="st1" d="M276.62,438.27c0,0,6.3,69.3,5.4,72.45c-0.9,3.15,7.65,3.15,7.65,3.15l3.15-78.74L276.62,438.27z"/>
	<path class="st1" d="M230.27,432.42c0,0-9,37.8-11.25,41.4l4.5,3.15l18-40.95L230.27,432.42z"/>
	<path class="st1" d="M202.82,419.37c0,0-31.5,86.39-34.2,87.74l9,4.95c0,0,39.15-84.59,41.4-85.04L202.82,419.37z"/>
	<path class="st1" d="M180.33,409.02c0,0-28.35,60.3-33.3,66.15l6.75,4.5c0,0,35.55-59.85,40.05-59.85S180.33,409.02,180.33,409.02z
		"/>
	<path class="st1" d="M163.68,390.13c0,0-47.7,73.35-53.55,76.05l6.3,4.95c0,0,59.4-66.15,62.1-66.15S163.68,390.13,163.68,390.13z"
		/>
	<path class="st1" d="M145.23,371.68c0,0-22.95,20.25-25.65,20.7l3.6,4.5c0,0,26.1-18,27.45-18S145.23,371.68,145.23,371.68z"/>
	<path class="st1" d="M155.13,383.38c0,0-48.15,50.4-52.2,51.75l5.85,5.4c0,0,53.1-43.65,55.8-44.1
		C167.28,395.98,155.13,383.38,155.13,383.38z"/>
	<path class="st1" d="M159.38,325.33c0,0-87.58,59.54-91.99,59.54l5.67,5.7c0,0,93.89-45.61,97.67-44.98
		S159.38,325.33,159.38,325.33z"/>
	<path class="st1" d="M124.08,307.33c0,0-76.5,31.05-81.89,31.05l0.9,6.75c0,0,81.44-17.1,85.94-18.45L124.08,307.33z"/>
	<path class="st1" d="M139.83,361.78c0,0-37.8,23.85-43.2,25.2l5.4,5.4l41.85-23.85L139.83,361.78z"/>
	<path class="st1" d="M155.58,285.28c0,0-90.64,17.1-106.19,13.5l0.68,9c0,0,98.75-6.3,105.52-4.95V285.28z"/>
	<path class="st1" d="M121.83,274.93c0,0-68.85-16.2-74.7-14.85v-5.4l79.19,3.15L121.83,274.93z"/>
	<path class="st1" d="M137.58,211.04c0,0-82.34-23.85-83.24-25.65l-2.25,7.2c0,0,73.8,32.85,76.5,34.65L137.58,211.04z"/>
	<path class="st1" d="M137.58,233.99c0,0-99.7-17.55-104.66-20.25l-1.98,6.75c0,0,99.2,28.8,101.68,29.7
		C135.1,251.08,137.58,233.99,137.58,233.99z"/>
	<path class="st1" d="M353.11,133.64c0,0,21.6-76.95,24.3-80.99l-9-3.6c0,0-30.15,78.74-32.4,79.64
		C333.77,129.59,353.11,133.64,353.11,133.64z"/>
	<path class="st0" d="M283.82,552.05c0,0,24.75,2.25,28.8,0c0,0-9.45-26.1-12.15-27.45s-6.75,0.9-6.75,0.9S281.12,548,283.82,552.05
		z"/>
	<path class="st0" d="M217.22,519.72l9,1.8c0,0,8.1,21.15,6.75,23.4c-1.35,2.25-30.6-0.9-31.5-10.35
		C200.57,525.12,217.22,519.72,217.22,519.72z"/>
	<path class="st0" d="M282.02,510.72h7.65c0,0,13.05,12.6,10.8,15.75c-2.25,3.15-23.85,9-24.75,4.05
		C274.82,525.57,282.02,510.72,282.02,510.72z"/>
	<path class="st0" d="M219.02,473.82l4.5,3.15c0,0,3.15,13.05,0,18.45c-3.15,5.4-15.75,6.3-17.55,0S214.52,470.67,219.02,473.82z"/>
	<path class="st0" d="M168.63,507.12l9,4.95c0,0,7.65,12.6,5.4,17.55c-2.25,4.95-28.8-2.7-28.8-9S166.38,506.22,168.63,507.12z"/>
	<path class="st0" d="M147.03,475.17l6.75,4.5c0,0,9,19.35,0,19.35c-9,0-25.2-3.15-25.2-9.45
		C128.58,483.27,147.03,475.17,147.03,475.17z"/>
	<path class="st0" d="M110.13,466.17l6.3,4.95c0,0-0.9,19.35-4.95,19.35s-26.1-13.05-22.05-17.1S110.13,466.17,110.13,466.17z"/>
	<path class="st0" d="M102.93,435.12l5.85,5.4c0,0-0.9,18.67-4.72,21.15c-3.82,2.47-25.42-6.97-26.1-11.7
		C77.28,445.25,99.78,434.45,102.93,435.12z"/>
	<path class="st0" d="M119.58,392.38c0,0-18.45-2.92-19.12,2.02s7.2,16.65,13.72,15.97c6.52-0.67,9-13.5,9-13.5L119.58,392.38z"/>
	<path class="st0" d="M96.63,386.98l5.4,5.4c0,0,3.6,13.27,0,16.2s-23.17-14.4-22.5-20.25C80.21,382.48,96.63,386.98,96.63,386.98z"
		/>
	<path class="st0" d="M67.38,386.53l4.05,4.05c0,0-3.82,17.55-11.02,17.77c-7.2,0.22-19.8-19.8-18.22-21.6
		C43.76,384.95,67.38,386.53,67.38,386.53z"/>
	<path class="st0" d="M42.18,338.38l0.9,6.75c0,0-9.22,14.4-14.4,14.85c-5.17,0.45-17.1-24.97-14.4-25.65S42.18,338.38,42.18,338.38
		z"/>
	<path class="st0" d="M47.13,260.08v-5.4c0,0-11.92-10.8-17.32-10.12c-5.4,0.67-7.87,13.72-7.87,13.72s-0.9,12.15,5.85,12.6
		C34.54,271.33,47.13,260.08,47.13,260.08z"/>
	<path class="st0" d="M49.38,298.78l0.45,9c0,0-13.72,14.85-19.57,13.05s-10.8-13.5-10.57-15.97c0.22-2.47-0.9-13.72,3.6-15.52
		C27.79,287.53,49.38,298.78,49.38,298.78z"/>
	<path class="st0" d="M34.54,221.39l2.92-6.3c0,0-9.22-14.62-13.95-14.4c-4.72,0.22-9,13.27-9,13.27s-4.05,13.27,0.67,14.62
		C19.91,229.94,34.54,221.39,34.54,221.39z"/>
	<path class="st0" d="M54.11,193.26l2.7-6.97c0,0-1.12-10.35-5.17-11.47c-4.05-1.12-13.05,6.07-13.05,6.07s-4.27,8.77-2.25,11.25
		C38.36,194.61,54.11,193.26,54.11,193.26z"/>
	<path class="st0" d="M89.56,155.9l5.7-6.9c0,0,1.05-8.77-3.9-12.82s-14.62,0.45-14.85,1.12s-11.25,6.75-8.32,13.5
		S89.56,155.9,89.56,155.9z"/>
	<path class="st0" d="M126.03,142.04l4.8-5.4c0,0,1.8-12.9-2.7-16.72c-4.5-3.82-18.9,1.57-18.9,1.57s-9.22,8.32-7.42,14.17
		C103.61,141.52,126.03,142.04,126.03,142.04z"/>
	<path class="st0" d="M137.73,99.74l10.8-5.4c0,0,4.8-11.55-0.37-16.72c-5.17-5.17-20.7-1.8-20.7-1.8s-13.72,5.85-11.92,11.92
		C117.33,93.82,137.73,99.74,137.73,99.74z"/>
	<path class="st0" d="M210.92,75.75l8.4-4.8c0,0,8.02-10.42,5.77-16.27c-2.25-5.85-19.35-6.75-19.35-6.75s-13.5,1.57-11.47,9.9
		S210.92,75.75,210.92,75.75z"/>
	<path class="st0" d="M221.27,37.35l7.65-0.45c0,0,11.7-13.27,6.07-18.9c-5.62-5.62-20.02-4.05-20.02-4.05s-15.07,1.12-12.82,7.65
		C204.4,28.12,221.27,37.35,221.27,37.35z"/>
	<path class="st0" d="M301.52,43.95l9.3,1.2c0,0,10.57-0.82,9.22-10.05s-10.57-11.25-10.57-11.25s-14.17-3.6-15.97,2.02
		C291.69,31.5,301.52,43.95,301.52,43.95z"/>
	<path class="st0" d="M368.41,49.05l9,3.6c0,0,9.9,0.22,10.8-7.65s-6.75-13.5-6.75-13.5s-11.47-6.97-14.85-0.22
		S368.41,49.05,368.41,49.05z"/>
	<path class="st0" d="M383.71,72l6.3,4.5c0,0,8.77,1.35,11.92-2.47c3.15-3.82-1.8-14.85-1.8-14.85s-11.7-9.9-16.42-5.4
		C378.99,58.27,383.71,72,383.71,72z"/>
	<path class="st0" d="M429.16,76.95l-7.65-5.4c0,0-5.4-9.67-2.92-13.95c2.47-4.27,13.5-3.82,16.42-1.35s13.95,11.47,11.7,15.07
		C444.46,74.92,429.16,76.95,429.16,76.95z"/>
	<path class="st0" d="M441.31,90.89l5.4,4.95c0,0,16.42,0.9,18.9-1.8s-2.92-16.65-2.92-16.65s-9.45-8.32-14.17-7.42
		C443.78,70.87,441.31,90.89,441.31,90.89z"/>
	<path class="st0" d="M453.01,130.04l3.15,4.5c0,0,19.57,6.07,19.57-1.35s-1.35-14.62-4.27-16.2c-2.92-1.57-11.47-6.52-14.4-3.37
		C454.13,116.77,453.01,130.04,453.01,130.04z"/>
	<path class="st0" d="M468.31,172.79l5.4,8.1c0,0,21.15,3.37,22.72-3.37c1.57-6.75-1.57-16.87-1.57-16.87s-7.42-12.82-13.5-11.92
		C475.28,149.62,468.31,172.79,468.31,172.79z"/>
	<path class="st0" d="M514.65,202.94l2.25,7.2c0,0,20.02,10.35,22.95,5.62s2.25-16.87,2.25-16.87s1.8-13.27-6.52-13.27
		S514.65,202.94,514.65,202.94z"/>
	<path class="st0" d="M505.21,252.43l-0.45,7.65c0,0,5.62,7.87,11.02,6.75c5.4-1.12,9-14.17,9-14.17s2.25-7.42-2.7-9.45
		C517.13,241.19,505.21,252.43,505.21,252.43z"/>
	<path class="st0" d="M509.7,300.13l-2.25,6.75c0,0,13.72,14.17,18.9,9.9s7.65-15.52,7.65-15.52s4.5-10.8-2.02-12.6
		C525.45,286.86,509.7,300.13,509.7,300.13z"/>
	<path class="st0" d="M529.05,320.38l-0.45,9.45c0,0,7.65,22.72,15.3,14.62s8.32-15.07,8.32-15.07s4.5-13.95,0.22-17.77
		C548.18,307.78,529.05,320.38,529.05,320.38z"/>
	<path class="st0" d="M505.21,355.93l-4.05,7.65c0,0-0.45,12.37,8.55,12.15c9-0.23,15.3-9,15.3-9s4.5-11.47,0.9-14.4
		C522.3,349.4,505.21,355.93,505.21,355.93z"/>
	<path class="st0" d="M505.66,407.67l-5.4,6.75c0,0-4.5,14.85,4.72,15.75c9.22,0.9,18.67-8.32,18.67-8.32s7.87-14.4,3.37-17.32
		C522.53,401.6,505.66,407.67,505.66,407.67z"/>
	<path class="st0" d="M447.16,453.57l5.4-4.5c0,0,23.85-2.25,25.65,5.4c1.8,7.65-6.07,14.62-6.07,14.62s-19.35,12.15-22.5,7.42
		C446.48,471.8,447.16,453.57,447.16,453.57z"/>
	<path class="st0" d="M369.25,489.06l14.85-3.6c0,0,10.57-6.52,12.6,6.3s-11.02,15.97-11.02,15.97s-20.92,6.97-20.92-1.12
		S369.25,489.06,369.25,489.06z"/>
</g>
</svg>

